<svg xmlns="http://www.w3.org/2000/svg" xmlns:xlink="http://www.w3.org/1999/xlink" width="500" zoomAndPan="magnify" viewBox="0 0 375 374.999991" height="500" preserveAspectRatio="xMidYMid meet" version="1.0"><path fill="#000000" d="M 256.726562 375 L 118.183594 375 C 114.667969 375 111.722656 372.332031 111.375 368.832031 C 99.898438 253.5 119.550781 160.574219 138.054688 102.929688 C 158.171875 40.269531 180.777344 5.351562 181.726562 3.898438 C 184.261719 0.03125 190.652344 0.03125 193.183594 3.898438 C 194.136719 5.351562 216.738281 40.269531 236.855469 102.929688 C 255.363281 160.574219 275.015625 253.5 263.535156 368.832031 C 263.191406 372.332031 260.246094 375 256.726562 375 Z M 124.410156 361.3125 L 250.503906 361.3125 C 266.804688 181.132812 206.699219 55.984375 187.464844 21.191406 C 168.238281 56.023438 108.140625 181.378906 124.410156 361.3125 Z M 124.410156 361.3125 " fill-opacity="1" fill-rule="nonzero"/><path fill="#000000" d="M 328.546875 375 L 256.726562 375 C 254.792969 375 252.953125 374.183594 251.65625 372.746094 C 250.359375 371.316406 249.726562 369.402344 249.917969 367.476562 C 257.285156 293.421875 252.621094 220.640625 236.058594 151.148438 C 235.921875 150.570312 235.859375 149.976562 235.875 149.382812 C 235.882812 149.09375 235.910156 148.652344 235.953125 148.367188 C 236.210938 146.703125 242.644531 107.273438 279.175781 85.019531 C 311.527344 65.316406 320.589844 40.300781 320.683594 40.050781 C 321.601562 37.417969 324.035156 35.597656 326.824219 35.464844 C 329.574219 35.277344 332.199219 36.894531 333.363281 39.425781 C 334.257812 41.359375 355.332031 87.574219 366.257812 151.757812 C 376.40625 211.320312 379.117188 297.832031 334.402344 371.699219 C 333.164062 373.746094 330.941406 375 328.546875 375 Z M 264.242188 361.3125 L 324.652344 361.3125 C 390.523438 248.195312 343.457031 102.789062 326.414062 58.507812 C 319.644531 69.085938 307.332031 83.898438 286.300781 96.710938 C 258.324219 113.75 250.945312 143.246094 249.695312 149.328125 C 265.796875 217.542969 270.6875 288.8125 264.242188 361.3125 Z M 264.242188 361.3125 " fill-opacity="1" fill-rule="nonzero"/><path fill="#000000" d="M 118.183594 375 L 46.363281 375 C 43.96875 375 41.75 373.746094 40.511719 371.695312 C -4.203125 297.832031 -1.496094 211.320312 8.652344 151.757812 C 19.582031 87.574219 40.65625 41.359375 41.546875 39.425781 C 42.714844 36.878906 45.222656 35.234375 48.117188 35.453125 C 50.902344 35.597656 53.324219 37.417969 54.234375 40.058594 C 54.421875 40.585938 63.566406 65.429688 95.734375 85.019531 C 132.269531 107.277344 138.699219 146.703125 138.960938 148.367188 C 139.003906 148.652344 139.027344 148.941406 139.035156 149.230469 C 139.046875 149.824219 138.992188 150.570312 138.851562 151.148438 C 122.289062 220.644531 117.625 293.425781 124.992188 367.480469 C 125.1875 369.402344 124.554688 371.316406 123.257812 372.746094 C 121.960938 374.183594 120.121094 375 118.183594 375 Z M 50.261719 361.3125 L 110.667969 361.3125 C 104.222656 288.769531 109.121094 217.460938 125.246094 149.214844 C 124.320312 144.835938 117.164062 114.101562 88.613281 96.710938 C 67.578125 83.898438 55.269531 69.085938 48.496094 58.511719 C 31.457031 102.789062 -15.609375 248.195312 50.261719 361.3125 Z M 50.261719 361.3125 " fill-opacity="1" fill-rule="nonzero"/><path fill="#000000" d="M 187.457031 341.28125 C 183.675781 341.28125 180.609375 338.214844 180.609375 334.4375 L 180.609375 78.992188 C 180.609375 75.214844 183.675781 72.148438 187.457031 72.148438 C 191.234375 72.148438 194.300781 75.214844 194.300781 78.992188 L 194.300781 334.4375 C 194.300781 338.214844 191.234375 341.28125 187.457031 341.28125 Z M 187.457031 341.28125 " fill-opacity="1" fill-rule="nonzero"/><path fill="#000000" d="M 187.457031 124.082031 L 164.875 124.082031 C 161.09375 124.082031 158.027344 121.015625 158.027344 117.238281 C 158.027344 113.460938 161.09375 110.394531 164.875 110.394531 L 187.457031 110.394531 C 191.234375 110.394531 194.300781 113.460938 194.300781 117.238281 C 194.300781 121.015625 191.234375 124.082031 187.457031 124.082031 Z M 187.457031 124.082031 " fill-opacity="1" fill-rule="nonzero"/><path fill="#000000" d="M 187.457031 155.109375 L 159.371094 155.109375 C 155.59375 155.109375 152.527344 152.042969 152.527344 148.265625 C 152.527344 144.488281 155.59375 141.421875 159.371094 141.421875 L 187.457031 141.421875 C 191.234375 141.421875 194.300781 144.488281 194.300781 148.265625 C 194.300781 152.042969 191.234375 155.109375 187.457031 155.109375 Z M 187.457031 155.109375 " fill-opacity="1" fill-rule="nonzero"/><path fill="#000000" d="M 187.457031 186.136719 L 149.082031 186.136719 C 145.300781 186.136719 142.234375 183.074219 142.234375 179.292969 C 142.234375 175.515625 145.300781 172.449219 149.082031 172.449219 L 187.457031 172.449219 C 191.234375 172.449219 194.300781 175.515625 194.300781 179.292969 C 194.300781 183.074219 191.234375 186.136719 187.457031 186.136719 Z M 187.457031 186.136719 " fill-opacity="1" fill-rule="nonzero"/><path fill="#000000" d="M 187.457031 217.171875 L 146.742188 217.171875 C 142.960938 217.171875 139.894531 214.105469 139.894531 210.324219 C 139.894531 206.546875 142.960938 203.480469 146.742188 203.480469 L 187.457031 203.480469 C 191.234375 203.480469 194.300781 206.546875 194.300781 210.324219 C 194.300781 214.105469 191.234375 217.171875 187.457031 217.171875 Z M 187.457031 217.171875 " fill-opacity="1" fill-rule="nonzero"/><path fill="#000000" d="M 187.457031 248.199219 L 143.464844 248.199219 C 139.6875 248.199219 136.621094 245.132812 136.621094 241.355469 C 136.621094 237.574219 139.6875 234.507812 143.464844 234.507812 L 187.457031 234.507812 C 191.234375 234.507812 194.300781 237.574219 194.300781 241.355469 C 194.300781 245.132812 191.234375 248.199219 187.457031 248.199219 Z M 187.457031 248.199219 " fill-opacity="1" fill-rule="nonzero"/><path fill="#000000" d="M 187.457031 279.226562 L 143.464844 279.226562 C 139.6875 279.226562 136.621094 276.160156 136.621094 272.382812 C 136.621094 268.601562 139.6875 265.535156 143.464844 265.535156 L 187.457031 265.535156 C 191.234375 265.535156 194.300781 268.601562 194.300781 272.382812 C 194.300781 276.160156 191.234375 279.226562 187.457031 279.226562 Z M 187.457031 279.226562 " fill-opacity="1" fill-rule="nonzero"/><path fill="#000000" d="M 187.457031 310.253906 L 139.722656 310.253906 C 135.945312 310.253906 132.878906 307.1875 132.878906 303.410156 C 132.878906 299.632812 135.945312 296.566406 139.722656 296.566406 L 187.457031 296.566406 C 191.234375 296.566406 194.300781 299.632812 194.300781 303.410156 C 194.300781 307.1875 191.234375 310.253906 187.457031 310.253906 Z M 187.457031 310.253906 " fill-opacity="1" fill-rule="nonzero"/><path fill="#000000" d="M 187.457031 341.28125 L 143.464844 341.28125 C 139.6875 341.28125 136.621094 338.214844 136.621094 334.4375 C 136.621094 330.660156 139.6875 327.59375 143.464844 327.59375 L 187.457031 327.59375 C 191.234375 327.59375 194.300781 330.660156 194.300781 334.4375 C 194.300781 338.214844 191.234375 341.28125 187.457031 341.28125 Z M 187.457031 341.28125 " fill-opacity="1" fill-rule="nonzero"/><path fill="#000000" d="M 78.039062 375 C 77.898438 375 77.761719 374.996094 77.621094 374.988281 C 73.84375 374.757812 70.972656 371.511719 71.199219 367.742188 C 80.78125 209.652344 54.40625 120.105469 54.140625 119.21875 C 53.046875 115.601562 55.09375 111.785156 58.707031 110.6875 C 62.3125 109.597656 66.144531 111.636719 67.242188 115.253906 C 68.359375 118.953125 94.609375 207.757812 84.867188 368.570312 C 84.644531 372.199219 81.628906 375 78.039062 375 Z M 78.039062 375 " fill-opacity="1" fill-rule="nonzero"/><path fill="#000000" d="M 66.988281 151.335938 L 16.910156 151.335938 C 13.128906 151.335938 10.0625 148.269531 10.0625 144.492188 C 10.0625 140.714844 13.128906 137.648438 16.910156 137.648438 L 66.988281 137.648438 C 70.769531 137.648438 73.835938 140.714844 73.835938 144.492188 C 73.832031 148.269531 70.765625 151.335938 66.988281 151.335938 Z M 66.988281 151.335938 " fill-opacity="1" fill-rule="nonzero"/><path fill="#000000" d="M 72.09375 182.136719 L 12.144531 182.136719 C 8.363281 182.136719 5.296875 179.070312 5.296875 175.292969 C 5.296875 171.511719 8.363281 168.445312 12.144531 168.445312 L 72.09375 168.445312 C 75.875 168.445312 78.941406 171.511719 78.941406 175.292969 C 78.941406 179.070312 75.875 182.136719 72.09375 182.136719 Z M 72.09375 182.136719 " fill-opacity="1" fill-rule="nonzero"/><path fill="#000000" d="M 75.769531 212.9375 L 9.585938 212.9375 C 5.804688 212.9375 2.738281 209.871094 2.738281 206.09375 C 2.738281 202.3125 5.804688 199.246094 9.585938 199.246094 L 75.769531 199.246094 C 79.546875 199.246094 82.613281 202.3125 82.613281 206.09375 C 82.613281 209.871094 79.546875 212.9375 75.769531 212.9375 Z M 75.769531 212.9375 " fill-opacity="1" fill-rule="nonzero"/><path fill="#000000" d="M 78.25 243.738281 L 9.585938 243.738281 C 5.804688 243.738281 2.738281 240.667969 2.738281 236.890625 C 2.738281 233.113281 5.804688 230.046875 9.585938 230.046875 L 78.25 230.046875 C 82.027344 230.046875 85.09375 233.113281 85.09375 236.890625 C 85.09375 240.667969 82.027344 243.738281 78.25 243.738281 Z M 78.25 243.738281 " fill-opacity="1" fill-rule="nonzero"/><path fill="#000000" d="M 79.683594 274.535156 L 12.0625 274.535156 C 8.28125 274.535156 5.214844 271.46875 5.214844 267.691406 C 5.214844 263.914062 8.28125 260.847656 12.0625 260.847656 L 79.683594 260.847656 C 83.460938 260.847656 86.53125 263.914062 86.53125 267.691406 C 86.527344 271.46875 83.460938 274.535156 79.683594 274.535156 Z M 79.683594 274.535156 " fill-opacity="1" fill-rule="nonzero"/><path fill="#000000" d="M 79.859375 305.335938 L 17.847656 305.335938 C 14.070312 305.335938 11.003906 302.269531 11.003906 298.492188 C 11.003906 294.710938 14.070312 291.644531 17.847656 291.644531 L 79.859375 291.644531 C 83.640625 291.644531 86.707031 294.710938 86.707031 298.492188 C 86.707031 302.269531 83.640625 305.335938 79.859375 305.335938 Z M 79.859375 305.335938 " fill-opacity="1" fill-rule="nonzero"/><path fill="#000000" d="M 79.746094 336.136719 L 27.429688 336.136719 C 23.652344 336.136719 20.585938 333.070312 20.585938 329.292969 C 20.585938 325.511719 23.652344 322.445312 27.429688 322.445312 L 79.746094 322.445312 C 83.523438 322.445312 86.59375 325.511719 86.59375 329.292969 C 86.59375 333.070312 83.523438 336.136719 79.746094 336.136719 Z M 79.746094 336.136719 " fill-opacity="1" fill-rule="nonzero"/><path fill="#000000" d="M 296.871094 375 C 293.28125 375 290.265625 372.199219 290.046875 368.566406 C 280.304688 207.753906 306.554688 118.953125 307.675781 115.253906 C 308.769531 111.636719 312.585938 109.59375 316.207031 110.6875 C 319.824219 111.785156 321.867188 115.601562 320.777344 119.21875 C 320.507812 120.109375 294.132812 209.648438 303.710938 367.742188 C 303.941406 371.511719 301.066406 374.753906 297.292969 374.988281 C 297.152344 374.996094 297.011719 375 296.871094 375 Z M 296.871094 375 " fill-opacity="1" fill-rule="nonzero"/><path fill="#000000" d="M 358.003906 151.335938 L 307.921875 151.335938 C 304.144531 151.335938 301.078125 148.269531 301.078125 144.492188 C 301.078125 140.714844 304.144531 137.648438 307.921875 137.648438 L 358.003906 137.648438 C 361.78125 137.648438 364.847656 140.714844 364.847656 144.492188 C 364.847656 148.269531 361.78125 151.335938 358.003906 151.335938 Z M 358.003906 151.335938 " fill-opacity="1" fill-rule="nonzero"/><path fill="#000000" d="M 362.769531 182.136719 L 302.816406 182.136719 C 299.039062 182.136719 295.972656 179.070312 295.972656 175.292969 C 295.972656 171.511719 299.039062 168.445312 302.816406 168.445312 L 362.769531 168.445312 C 366.546875 168.445312 369.613281 171.511719 369.613281 175.292969 C 369.613281 179.070312 366.546875 182.136719 362.769531 182.136719 Z M 362.769531 182.136719 " fill-opacity="1" fill-rule="nonzero"/><path fill="#000000" d="M 365.328125 212.9375 L 299.144531 212.9375 C 295.367188 212.9375 292.300781 209.871094 292.300781 206.09375 C 292.300781 202.3125 295.367188 199.246094 299.144531 199.246094 L 365.328125 199.246094 C 369.105469 199.246094 372.171875 202.3125 372.171875 206.09375 C 372.171875 209.871094 369.105469 212.9375 365.328125 212.9375 Z M 365.328125 212.9375 " fill-opacity="1" fill-rule="nonzero"/><path fill="#000000" d="M 365.328125 243.738281 L 296.664062 243.738281 C 292.886719 243.738281 289.820312 240.667969 289.820312 236.890625 C 289.820312 233.113281 292.886719 230.046875 296.664062 230.046875 L 365.328125 230.046875 C 369.105469 230.046875 372.171875 233.113281 372.171875 236.890625 C 372.171875 240.667969 369.105469 243.738281 365.328125 243.738281 Z M 365.328125 243.738281 " fill-opacity="1" fill-rule="nonzero"/><path fill="#000000" d="M 362.851562 274.535156 L 295.226562 274.535156 C 291.449219 274.535156 288.382812 271.46875 288.382812 267.691406 C 288.382812 263.914062 291.449219 260.847656 295.226562 260.847656 L 362.851562 260.847656 C 366.628906 260.847656 369.695312 263.914062 369.695312 267.691406 C 369.695312 271.46875 366.628906 274.535156 362.851562 274.535156 Z M 362.851562 274.535156 " fill-opacity="1" fill-rule="nonzero"/><path fill="#000000" d="M 357.0625 305.335938 L 295.050781 305.335938 C 291.273438 305.335938 288.207031 302.269531 288.207031 298.492188 C 288.207031 294.710938 291.273438 291.644531 295.050781 291.644531 L 357.0625 291.644531 C 360.84375 291.644531 363.910156 294.710938 363.910156 298.492188 C 363.910156 302.269531 360.84375 305.335938 357.0625 305.335938 Z M 357.0625 305.335938 " fill-opacity="1" fill-rule="nonzero"/><path fill="#000000" d="M 347.484375 336.136719 L 295.164062 336.136719 C 291.386719 336.136719 288.320312 333.070312 288.320312 329.292969 C 288.320312 325.511719 291.386719 322.445312 295.164062 322.445312 L 347.484375 322.445312 C 351.261719 322.445312 354.328125 325.511719 354.328125 329.292969 C 354.328125 333.070312 351.261719 336.136719 347.484375 336.136719 Z M 347.484375 336.136719 " fill-opacity="1" fill-rule="nonzero"/></svg>